<?xml version="1.0" encoding="UTF-8" standalone="no"?>
<!DOCTYPE svg PUBLIC "-//W3C//DTD SVG 1.1//EN" "http://www.w3.org/Graphics/SVG/1.1/DTD/svg11.dtd">
<svg xmlns="http://www.w3.org/2000/svg" version="1.1" viewBox="0 0 500 500">
<path fill="#0594c9" d="M 197.72,205.77 L 179.06,214.89 A 1.13,1.11 -17.6 0 1 177.45,214.08 Q 172.87,184.23 188.79,161.60 Q 192.35,156.53 202.14,146.75 Q 222.97,125.94 243.87,104.75 A 0.71,0.70 -45.3 0 1 244.87,104.74 L 293.95,153.82 A 0.52,0.51 60.1 0 1 293.72,154.68 L 213.37,176.34 A 0.68,0.68 66.2 0 0 212.98,177.36 L 232.46,208.53 A 0.79,0.79 -31.2 0 1 232.19,209.62 Q 187.49,235.75 144.78,260.84 Q 143.82,261.40 143.93,260.77 Q 143.96,260.54 144.20,260.30 Q 171.20,233.29 197.83,205.93 Q 198.22,205.52 197.72,205.77 Z"/>
<path fill="#000000" d="M 181.96,146.20 Q 195.46,130.95 214.26,123.51 Q 215.94,122.84 214.71,124.16 Q 208.32,130.97 201.46,137.14 Q 189.93,147.52 187.90,149.76 Q 160.27,180.30 170.57,223.20 A 0.90,0.88 61.0 0 1 170.34,224.04 L 166.18,228.19 A 0.58,0.58 58.5 0 1 165.22,227.96 Q 158.87,207.91 162.12,188.02 Q 166.02,164.20 181.96,146.20 Z"/>
<path fill="#000000" d="M 303.42,142.33 Q 307.91,146.78 311.88,152.38 A 0.75,0.71 57.2 0 1 311.68,153.44 L 307.36,155.99 A 0.88,0.85 55.7 0 1 306.23,155.75 Q 300.81,148.80 294.57,143.37 Q 286.13,136.01 286.06,135.94 Q 279.96,130.17 274.05,124.18 Q 272.71,122.82 274.49,123.51 Q 290.86,129.84 303.42,142.33 Z"/>
<path fill="#6dc14d" d="M 292.30,199.03 L 310.14,189.04 A 1.15,1.13 -19.0 0 1 311.84,189.85 Q 316.10,218.42 299.79,240.97 Q 293.73,249.35 285.94,255.29 Q 276.85,262.24 265.94,265.81 Q 256.63,268.86 246.29,269.14 Q 217.25,269.93 195.48,248.61 Q 194.54,247.69 195.81,247.34 L 276.87,224.97 A 0.39,0.39 66.2 0 0 277.09,224.39 L 258.31,193.00 A 0.51,0.49 -30.6 0 1 258.50,192.31 L 349.30,139.87 A 0.38,0.20 -32.2 0 1 349.72,139.84 Q 349.77,139.93 349.73,140.08 Q 349.70,140.17 349.60,140.27 Q 321.03,169.12 291.74,198.26 Q 289.24,200.75 292.30,199.03 Z"/>
<path fill="#000000" d="M 182.87,247.58 Q 191.24,258.27 201.06,264.94 Q 223.36,280.07 249.75,278.25 Q 275.19,276.49 294.81,259.29 Q 315.02,241.55 319.75,216.75 Q 322.88,200.32 318.87,182.31 A 1.84,1.84 -29.6 0 1 319.33,180.65 L 323.13,176.62 Q 323.91,175.80 324.22,176.89 Q 333.59,209.64 319.22,238.60 Q 314.78,247.56 308.29,255.30 Q 289.78,277.37 261.38,283.41 Q 251.67,285.48 241.50,285.04 Q 201.78,283.34 177.05,250.89 A 0.55,0.55 49.8 0 1 177.11,250.15 Q 179.25,248.13 182.08,247.32 A 0.74,0.73 62.8 0 1 182.87,247.58 Z"/>
<path fill="#000000" d="M 368.03,326.88 A 0.38,0.37 -20.7 0 0 367.51,326.65 Q 361.59,329.60 356.35,328.05 Q 352.45,326.90 350.99,323.68 Q 349.90,321.29 349.88,317.34 Q 349.83,308.84 359.00,307.25 Q 363.41,306.48 367.43,308.52 Q 369.22,309.43 370.56,311.06 Q 374.77,316.18 366.18,314.89 A 1.02,0.93 78.7 0 1 365.47,314.37 Q 364.50,312.49 362.94,312.31 Q 355.74,311.50 356.75,318.75 Q 357.75,325.98 364.20,322.78 Q 364.83,322.48 365.11,322.00 Q 365.91,320.68 363.52,321.12 Q 359.97,321.77 360.95,317.35 A 0.72,0.66 -82.6 0 1 361.62,316.79 L 371.24,316.95 A 0.55,0.51 90.0 0 1 371.74,317.49 L 371.91,327.45 A 0.77,0.70 78.5 0 1 371.49,328.15 Q 368.74,329.31 368.03,326.88 Z"/>
<path fill="#000000" d="M 105.05,320.45 L 108.62,308.16 A 0.81,0.77 -81.5 0 1 109.37,307.58 L 115.00,307.67 A 0.41,0.38 -79.0 0 1 115.34,308.22 L 108.48,327.59 A 0.78,0.66 -79.1 0 1 107.82,328.12 L 100.93,328.12 A 0.80,0.66 78.3 0 1 100.27,327.59 L 93.40,308.47 A 0.68,0.67 79.6 0 1 94.02,307.55 L 99.66,307.50 A 0.73,0.71 81.0 0 1 100.34,308.01 Q 102.42,314.43 104.04,320.44 Q 104.16,320.88 104.45,320.98 A 0.68,0.43 -73.7 0 0 105.05,320.45 Z"/>
<rect fill="#000000" x="-3.37" y="-10.39" transform="translate(122.12,317.89) rotate(0.1)" width="6.74" height="20.78" rx="0.37"/>
<path fill="#000000" d="M 147.18,317.73 Q 149.30,318.90 149.69,320.06 Q 151.24,324.76 148.27,326.97 Q 146.55,328.25 142.44,328.25 Q 136.55,328.25 130.95,328.25 A 0.99,0.95 -90.0 0 1 130.00,327.26 L 130.07,308.19 A 0.69,0.67 -90.0 0 1 130.74,307.50 Q 137.75,307.50 144.75,307.50 Q 147.04,307.50 148.49,309.31 Q 149.79,310.92 149.74,312.95 Q 149.68,315.63 147.18,317.24 A 0.29,0.28 -46.0 0 0 147.18,317.73 ZM 142.8889,313.2147 A 1.18 1.18 0.0 0 0 141.7069,312.0367 L 137.9469,312.0433 A 1.18 1.18 0.0 0 0 136.7689,313.2253 L 136.7711,314.4453 A 1.18 1.18 0.0 0 0 137.9531,315.6233 L 141.7131,315.6167 A 1.18 1.18 0.0 0 0 142.8911,314.4347 L 142.8889,313.2147 ZM 143.3987,320.9844 A 0.99 0.99 0.0 0 0 142.4070,319.9961 L 137.9270,320.0039 A 0.99 0.99 0.0 0 0 136.9387,320.9956 L 136.9413,322.4956 A 0.99 0.99 0.0 0 0 137.9330,323.4839 L 142.4130,323.4761 A 0.99 0.99 0.0 0 0 143.4013,322.4844 L 143.3987,320.9844 Z"/>
<path fill="#000000" d="M 159.72,328.31 L 154.43,328.29 A 0.51,0.47 -0.0 0 1 153.92,327.82 L 153.76,308.13 A 0.65,0.63 -0.0 0 1 154.41,307.50 Q 161.00,307.50 167.00,307.57 Q 169.34,307.60 171.02,308.87 Q 172.66,310.11 173.22,312.17 Q 174.26,316.05 170.18,319.43 A 0.78,0.76 -34.2 0 0 169.98,320.39 L 173.76,327.52 Q 174.26,328.46 173.19,328.42 L 167.07,328.19 A 0.86,0.80 -10.9 0 1 166.35,327.74 Q 164.94,324.81 163.44,321.92 Q 162.96,320.98 162.34,320.77 Q 161.69,320.55 161.01,320.83 A 0.82,0.74 80.0 0 0 160.55,321.57 L 160.50,327.56 A 0.77,0.75 0.4 0 1 159.72,328.31 ZM 166.5467,313.3749 A 1.01 1.01 0.0 0 0 165.5581,312.3440 L 161.3990,312.2568 A 1.01 1.01 0.0 0 0 160.3681,313.2455 L 160.3333,314.9051 A 1.01 1.01 0.0 0 0 161.3219,315.9360 L 165.4810,316.0232 A 1.01 1.01 0.0 0 0 166.5119,315.0345 L 166.5467,313.3749 Z"/>
<path fill="#000000" d="M 182.97,326.06 L 182.41,327.74 A 0.83,0.65 6.2 0 1 181.69,328.19 L 176.26,328.40 A 0.63,0.61 8.6 0 1 175.63,327.58 L 182.85,307.98 A 0.74,0.74 -79.7 0 1 183.54,307.50 L 190.06,307.50 A 1.07,1.06 79.7 0 1 191.06,308.20 L 198.25,327.72 A 0.45,0.45 -9.4 0 1 197.82,328.32 L 191.82,328.20 A 0.72,0.69 81.0 0 1 191.17,327.71 L 190.67,326.22 A 0.80,0.68 79.6 0 0 190.01,325.68 L 183.56,325.52 A 0.77,0.54 -77.4 0 0 182.97,326.06 ZM 186.25,314.65 L 184.77,319.70 A 0.66,0.61 -75.1 0 0 185.20,320.51 Q 188.67,321.31 188.26,319.04 Q 187.87,316.88 187.21,314.61 Q 186.74,312.99 186.25,314.65 Z"/>
<path fill="#000000" d="M 207.05,319.18 L 207.00,327.82 A 0.51,0.50 -89.4 0 1 206.49,328.33 L 201.56,328.20 A 0.52,0.51 -89.4 0 1 201.06,327.68 L 201.00,308.15 A 0.64,0.63 90.0 0 1 201.63,307.51 L 206.19,307.54 A 1.10,1.07 69.4 0 1 207.02,307.93 L 214.52,316.61 Q 215.55,317.80 215.56,316.20 L 215.65,308.18 A 0.57,0.54 89.5 0 1 216.18,307.61 L 220.76,307.59 A 1.02,0.97 -89.7 0 1 221.73,308.62 L 221.58,327.56 A 0.59,0.51 -89.4 0 1 221.07,328.14 L 216.18,328.13 A 1.28,0.85 61.7 0 1 215.36,327.69 L 207.65,318.96 Q 207.06,318.30 207.05,319.18 Z"/>
<path fill="#000000" d="M 230.68,312.80 L 225.31,312.70 A 0.67,0.65 -6.2 0 1 224.68,312.21 Q 224.17,310.13 224.68,308.05 A 0.64,0.64 -83.1 0 1 225.30,307.56 L 243.83,307.51 A 0.99,0.89 -0.6 0 1 244.83,308.39 L 244.87,312.26 A 0.61,0.50 -0.0 0 1 244.26,312.76 L 238.88,312.72 A 0.74,0.72 90.0 0 0 238.16,313.46 L 238.09,327.57 A 0.55,0.53 -90.0 0 1 237.56,328.12 L 232.19,328.19 A 0.81,0.72 89.3 0 1 231.46,327.39 L 231.23,313.31 A 0.56,0.52 0.0 0 0 230.68,312.80 Z"/>
<path fill="#000000" d="M 265.56,315.21 L 273.25,315.22 A 1.04,0.90 -0.6 0 1 274.29,316.10 L 274.38,319.52 A 0.63,0.52 -1.4 0 1 273.76,320.06 L 265.80,320.11 A 0.85,0.64 8.0 0 0 265.08,320.51 Q 264.58,321.65 265.08,322.76 A 0.82,0.75 -11.0 0 0 265.81,323.20 L 275.58,323.25 A 0.92,0.87 0.3 0 1 276.50,324.13 L 276.46,327.62 A 0.66,0.64 0.4 0 1 275.80,328.25 L 258.82,328.19 A 0.51,0.49 0.0 0 1 258.31,327.70 L 258.25,308.00 A 0.50,0.50 -45.0 0 1 258.75,307.50 L 275.43,307.56 A 0.67,0.63 -6.7 0 1 276.07,308.04 Q 276.58,310.00 276.08,311.96 A 0.67,0.65 7.4 0 1 275.44,312.44 L 265.81,312.56 A 0.87,0.76 11.1 0 0 265.05,313.00 Q 264.65,313.83 264.89,314.71 A 0.70,0.67 -7.0 0 0 265.56,315.21 Z"/>
<path fill="#000000" d="M 294.41,316.69 Q 295.05,313.08 294.67,308.56 A 0.90,0.83 87.5 0 1 295.49,307.59 L 300.07,307.61 A 0.58,0.52 -89.5 0 1 300.58,308.19 L 300.73,327.62 A 0.54,0.51 90.0 0 1 300.21,328.17 L 295.25,328.09 A 1.29,0.91 64.0 0 1 294.42,327.63 L 287.03,319.03 Q 286.25,318.13 286.25,319.32 L 286.20,327.69 A 0.52,0.52 -0.0 0 1 285.68,328.21 L 280.91,328.23 A 0.93,0.91 -90.0 0 1 280.00,327.30 L 280.00,308.42 A 0.92,0.92 45.0 0 1 280.92,307.50 L 284.98,307.50 A 2.11,2.05 69.2 0 1 286.56,308.24 L 293.98,316.81 Q 294.32,317.20 294.41,316.69 Z"/>
<path fill="#000000" d="M 313.56,323.40 L 322.80,323.30 A 0.95,0.82 -89.3 0 1 323.62,324.28 L 323.51,327.75 A 0.59,0.55 -88.9 0 1 322.96,328.32 L 306.10,328.33 A 0.85,0.83 -0.0 0 1 305.25,327.50 L 305.25,308.17 A 0.67,0.67 -45.0 0 1 305.92,307.50 Q 314.50,307.50 322.50,307.48 Q 323.76,307.47 323.49,308.48 Q 323.35,309.01 323.43,309.43 Q 323.67,310.71 323.34,311.96 A 0.68,0.67 -82.0 0 1 322.69,312.46 L 313.06,312.35 A 0.97,0.74 12.3 0 0 312.27,312.72 Q 311.57,313.85 312.28,315.03 A 0.95,0.74 -12.6 0 0 313.06,315.40 L 320.88,315.26 A 0.77,0.73 -0.4 0 1 321.66,315.99 L 321.65,319.57 A 0.59,0.54 -0.0 0 1 321.06,320.11 L 313.05,320.11 A 1.00,0.74 11.8 0 0 312.27,320.47 Q 311.24,322.08 312.65,323.16 A 1.57,0.88 -14.6 0 0 313.56,323.40 Z"/>
<path fill="#000000" d="M 343.46,319.79 Q 344.78,323.91 347.11,327.45 Q 347.69,328.33 346.62,328.32 L 340.53,328.26 A 0.94,0.87 -12.1 0 1 339.73,327.78 Q 338.21,324.75 337.05,321.98 Q 336.27,320.14 334.51,320.85 A 0.84,0.70 82.4 0 0 334.06,321.57 L 333.85,327.57 A 0.57,0.55 -89.4 0 1 333.31,328.12 L 327.77,328.22 A 0.88,0.78 89.7 0 1 326.97,327.33 L 327.24,308.28 A 0.79,0.77 -89.6 0 1 328.01,307.50 Q 333.30,307.50 338.29,307.50 Q 342.07,307.50 343.58,308.26 Q 346.34,309.64 346.81,313.19 Q 347.37,317.33 343.76,319.11 A 0.58,0.56 -22.2 0 0 343.46,319.79 ZM 339.9077,313.4992 A 1.24 1.24 0.0 0 0 338.6634,312.2636 L 334.9634,312.2765 A 1.24 1.24 0.0 0 0 333.7277,313.5208 L 333.7323,314.8408 A 1.24 1.24 0.0 0 0 334.9766,316.0764 L 338.6766,316.0635 A 1.24 1.24 0.0 0 0 339.9123,314.8192 L 339.9077,313.4992 Z"/>
<path fill="#000000" d="M 382.59,327.83 L 382.21,320.99 Q 382.18,320.36 381.99,320.06 L 374.39,308.25 Q 373.91,307.50 374.79,307.50 L 380.99,307.50 A 1.33,1.27 74.6 0 1 382.11,308.17 L 385.26,313.67 Q 385.73,314.50 386.19,313.68 L 388.85,308.99 A 2.69,2.05 -71.5 0 1 390.89,307.61 L 396.26,307.67 Q 396.81,307.67 396.50,308.17 L 389.34,319.65 A 1.89,1.78 63.8 0 0 389.06,320.56 L 388.85,327.56 A 0.57,0.56 -90.0 0 1 388.31,328.11 L 383.19,328.32 A 0.58,0.52 -2.6 0 1 382.59,327.83 Z"/>
</svg>
